<svg width="155" height="155" viewBox="0 0 155 155" fill="none" xmlns="http://www.w3.org/2000/svg">
<path fill-rule="evenodd" clip-rule="evenodd" d="M24.7568 62.2295C22.6913 62.48 21.7954 62.6504 19.3779 63.2531C16.8606 63.8809 14.8522 64.2117 13.4014 64.2377C12.785 64.2487 9.74266 64.2064 6.64038 64.1439C1.01957 64.0302 1 64.031 1 64.3355C1 64.6349 1.09936 64.6434 5.89331 64.7547C15.0215 64.9662 14.7805 64.9813 19.2285 63.9258C23.9283 62.8108 26.3578 62.5521 31.331 62.6371C34.8753 62.6976 35.0247 62.7264 37.9372 63.9113C39.7744 64.6588 42.6317 65.474 44.5274 65.7915C46.2704 66.0835 46.1106 66.0231 48.0079 67.1068L49.5188 67.9699L49.6002 68.867C49.7111 70.0895 50.1881 70.7173 51.1635 70.9246C52.4071 71.1888 54.3665 71.4185 54.603 71.3277C54.7889 71.2565 54.7974 71.281 54.6492 71.4596C54.5491 71.5801 54.0914 71.7629 53.6323 71.8657C52.9372 72.0211 52.3295 72.0095 50.0012 71.7964C46.5596 71.4812 45.8662 71.294 45.1814 70.4943C44.7381 69.9768 44.645 69.9276 44.4819 70.1241C44.1823 70.4849 42.9865 70.398 41.441 69.9032C38.9567 69.1078 38.3117 69.1424 36.8467 70.1498C36.3966 70.4591 35.991 70.635 35.8513 70.5816C35.7217 70.5318 35.0625 70.1571 34.3864 69.7489C32.9815 68.9008 32.5734 68.8024 33.2081 69.4649C33.8945 70.1815 34.9636 70.8319 38.3846 72.6144C42.4283 74.7214 42.7582 74.9396 44.5283 76.6787C45.8971 78.0236 50.0127 81.4118 53.2955 83.896C55.2561 85.3798 57.8546 86.5376 63.4548 88.4221C67.301 89.7165 68.1561 90.0815 68.8093 90.7076C69.4729 91.3435 69.733 91.8731 69.7186 92.5592L69.7068 93.1267L69.5502 92.6787C69.464 92.4323 69.2635 92.0876 69.1047 91.9127C68.6532 91.4158 66.992 90.9383 65.7372 90.9449C64.2555 90.9525 63.8214 91.1995 63.3279 92.3158C63.1139 92.7997 62.8665 93.2232 62.7782 93.2571C62.5466 93.346 60.2721 92.9605 59.0473 92.6248C57.8144 92.2869 52.785 90.865 51.7619 90.5651C50.979 90.3357 48.5229 88.8217 43.9565 85.754C42.313 84.6497 40.6321 83.5893 40.2212 83.3974C39.4388 83.0321 38.8017 82.9413 38.8017 83.195C38.8017 83.2771 38.8638 83.3444 38.9397 83.3444C39.2332 83.3444 40.0307 84.1656 40.7571 85.2159C41.5731 86.3959 42.7554 87.4017 45.1518 88.955C46.9902 90.1465 51.6874 92.5084 53.1047 92.9539C55.1068 93.5834 58.8186 94.3816 60.8403 94.6174C61.9086 94.742 63.3385 94.9216 64.0177 95.0165C65.1658 95.1767 65.2365 95.2067 65.023 95.4427C64.8966 95.5822 64.7116 96.0853 64.6118 96.5607L64.4304 97.425L61.3653 97.3233C57.8093 97.2053 55.9679 97.0552 51.9654 96.5567C48.2822 96.098 48.4588 96.1775 41.3236 91.7727C38.5444 90.0573 36.6569 89.0822 35.8135 88.9264L35.2905 88.83L36.145 89.7089C36.6149 90.1923 37.3209 91.0172 37.7139 91.542C38.3142 92.3437 38.7025 92.6624 40.1465 93.5385C42.8706 95.191 47.4639 97.7031 48.2964 97.9957C49.9497 98.5763 56.431 99.4246 57.8147 99.2414C58.675 99.1274 58.714 99.2717 58.0259 100.022L57.5277 100.566L52.012 100.388C48.9786 100.29 46.1392 100.14 45.7024 100.053C44.8762 99.8906 42.5456 98.7509 39.4741 97.0077C38.488 96.4481 37.0424 95.6303 36.2617 95.1903C34.8016 94.3675 32.8483 93.6495 32.0703 93.6495C31.466 93.6495 31.5271 93.7975 32.3477 94.3215C32.8587 94.6479 33.1784 95.0126 33.5244 95.6639C33.9827 96.5265 34.6536 97.2316 35.0177 97.2331C35.1142 97.2335 36.5761 97.9391 38.2664 98.801C41.3962 100.397 44.5316 101.792 45.3631 101.958C46.2393 102.133 45.8202 102.248 44.6662 102.148C42.8316 101.99 40.4475 101.462 39.085 100.911C38.395 100.632 36.6804 99.8567 35.2747 99.1876C32.6384 97.9328 32.6665 97.9415 28.1186 96.9989C26.2915 96.6203 22.5191 94.6163 17.6777 91.4525C14.6127 89.4495 12.1957 87.6019 10.1691 85.7124C8.07266 83.7582 6.96565 82.9259 5.3605 82.0971C3.34625 81.0572 1.4088 80.6903 3.10001 81.669C3.54751 81.9279 4.11528 82.3076 4.36181 82.5126L4.81006 82.8856L2.90503 82.8909L1 82.8963V84.3898V85.8833H3.9569C8.13153 85.8833 8.56588 86.0182 11.6831 88.2827C18.3065 93.0945 25.4281 97.2875 28.4991 98.1834C30.5275 98.7753 31.7479 99.2554 34.881 100.694C38.7633 102.477 38.9851 102.558 40.2959 102.683C40.9122 102.742 42.2569 102.945 43.2842 103.136C44.3114 103.326 45.7233 103.527 46.4219 103.582C47.1204 103.637 47.8413 103.705 48.0237 103.733C48.703 103.837 53.547 103.481 54.2936 103.272C55.091 103.05 55.6855 102.51 55.6855 102.009C55.6855 101.774 55.9152 101.739 57.8894 101.673C60.5844 101.583 63.4718 101.191 64.2099 100.814C64.8558 100.485 65.248 99.7634 65.248 98.9046C65.248 98.2148 65.1578 98.2469 67.8628 97.9768C70.0937 97.754 70.7022 97.5016 71.1651 96.6069C71.5189 95.9232 71.4284 95.1135 70.9198 94.4116C70.67 94.0669 70.3711 93.7486 70.2559 93.7044C70.0984 93.6441 70.0813 93.5321 70.1872 93.2537C70.5165 92.3879 70.2101 91.2856 69.4295 90.5285C68.5732 89.6978 67.4251 89.1525 64.4262 88.1525C59.306 86.4451 55.745 84.97 54.3575 83.9815C53.8141 83.5945 52.6636 82.708 51.8008 82.0116C50.9379 81.3151 49.3915 80.0763 48.3642 79.2588C47.337 78.4412 45.7906 77.0854 44.9277 76.2462C43.2777 74.6413 42.6308 74.1782 40.2585 72.9048C39.4572 72.4747 38.8017 72.0601 38.8017 71.9837C38.8017 71.8122 38.6946 71.8112 40.9629 72.0049C42.7161 72.1547 42.9151 72.2047 43.9474 72.7547C45.5904 73.6302 47.0101 73.9531 49.3354 73.9799C52.444 74.0159 54.4681 73.315 55.4393 71.8666C55.9238 71.144 56.1105 70.1187 55.8469 69.6266C55.5872 69.1417 54.6466 68.7332 52.8771 68.337C50.487 67.8019 50.0133 67.6271 48.4896 66.7183C46.6387 65.6145 46.385 65.5203 44.0312 65.0616C41.8319 64.6331 39.5206 63.9266 37.3076 63.0064C34.9818 62.0394 34.4925 61.971 30.1605 62.0071C28.0514 62.0249 25.6197 62.1248 24.7568 62.2295ZM150.638 64.6231C149.284 64.7405 147.211 65.0498 145.857 65.3361C142.838 65.9747 142.639 65.9936 137.863 66.0929C135.686 66.1383 133.164 66.2103 132.26 66.253C129.552 66.381 125.612 66.8056 125.291 67.0041C125.216 67.0504 124.03 67.1476 122.656 67.2203C120.693 67.324 119.89 67.4328 118.906 67.7285C117.414 68.1769 116.319 68.3267 111.841 68.6962L108.454 68.9756L106.013 69.8094C104.671 70.2681 102.548 70.8767 101.297 71.1619C100.045 71.4472 98.3641 71.8803 97.5615 72.1242C96.7587 72.3681 95.3015 72.7783 94.3231 73.0357C91.7016 73.7254 91.5449 73.8363 91.5449 75.0004C91.5449 75.8345 91.8975 76.4201 92.7111 76.9368C93.7679 77.608 94.8314 77.8616 96.5486 77.8517C97.7923 77.8447 98.2847 77.7662 99.4701 77.3858C100.79 76.9621 101.039 76.9304 102.832 76.957C105.019 76.9895 105.813 76.8167 107.59 75.9224C108.602 75.4133 108.663 75.4014 109.392 75.5724C109.807 75.6697 110.483 75.798 110.894 75.8575L111.641 75.9655L109.475 76.6889C107.002 77.5145 106.095 77.9382 104.425 79.0476C103.188 79.8696 101.941 80.6589 98.5673 82.7565C97.1896 83.613 96.2187 84.3459 95.5044 85.0687C94.9291 85.6509 93.534 86.9508 92.404 87.9578C90.5096 89.6457 90.3496 89.8288 90.3496 90.3075C90.3496 91.4065 90.9949 92.0344 92.393 92.2955C93.3736 92.4786 94.6351 92.2617 95.9871 91.6773C97.5446 91.0043 98.6075 90.2773 99.7682 89.0918C100.299 88.549 100.851 88.0401 100.994 87.9604C101.137 87.8808 101.879 87.6574 102.643 87.4637C104.189 87.0715 106.462 86.1766 107.144 85.6911C107.389 85.5169 107.984 85.0223 108.466 84.592C109.395 83.7639 109.382 83.7685 112.015 83.3387C112.631 83.238 113.236 83.1247 113.359 83.0867C113.908 82.9181 112.718 83.6814 111.206 84.4691C109.005 85.6148 107.995 86.3497 106.561 87.8469C105.904 88.5335 104.468 90.0262 103.372 91.1641C102.275 92.302 101.276 93.4767 101.151 93.7745C101.027 94.0723 100.384 94.8871 99.7229 95.5853C97.5359 97.8947 97.0732 98.5221 97.0732 99.1779C97.0732 99.9015 97.7284 100.715 98.5216 100.977C99.3314 101.244 100.543 101.061 101.486 100.53L102.298 100.072L101.997 100.649C101.16 102.254 102.685 103.984 104.578 103.576C105.969 103.275 107.361 102.228 108.695 100.478C109.666 99.2029 109.871 99.0198 111 98.418C112.201 97.7779 113.381 96.7546 114.734 95.1803C115.152 94.6946 115.386 94.5456 115.73 94.5456C115.978 94.5456 116.222 94.4783 116.273 94.3962C116.324 94.3141 116.477 94.2469 116.613 94.2469C116.769 94.2469 116.486 94.6205 115.852 95.2511C115.297 95.8035 114.804 96.4079 114.757 96.5942C114.71 96.7806 114.629 96.9071 114.576 96.8751C114.523 96.8433 114.393 96.9109 114.287 97.0255C114.181 97.14 114.132 97.2338 114.179 97.2338C114.225 97.2338 114.153 97.4019 114.018 97.6072C113.883 97.8126 113.697 97.981 113.604 97.9815C113.443 97.9824 113.104 98.4652 112.644 99.3515C112.529 99.5715 112.063 100.176 111.608 100.696C109.786 102.774 109.532 103.594 110.431 104.492C110.896 104.957 111.015 105 111.835 105C113.497 105 114.193 104.473 119.172 99.4464C119.996 98.6143 120.751 98.0048 121.278 97.7461C122.345 97.2229 123.235 96.6221 124.33 95.6851C125.162 94.9733 125.278 94.9221 126.272 94.8259C126.854 94.7697 127.929 94.5155 128.661 94.261C129.606 93.9331 130.497 93.7519 131.724 93.6386C133.916 93.436 135.265 93.1792 136.746 92.6824C139.374 91.8007 140.976 90.8707 143.293 88.8833C146.504 86.1291 146.804 86.0134 150.974 85.9202L154 85.8527V84.3744V82.8963H152.414C150.536 82.8963 150.606 83.2349 151.817 79.9942C152.276 78.7675 152.62 77.7338 152.583 77.6967C152.546 77.6597 151.691 78.4197 150.682 79.3856C148.507 81.4682 147.583 82.1982 145.745 83.2839C144.01 84.3086 142.517 84.8849 140.541 85.292C138.778 85.6554 137.275 85.7029 133.306 85.5207C131.113 85.42 130.23 85.4442 128.525 85.6521C124.848 86.1005 123.687 86.3947 121.738 87.3713C120.334 88.0744 119.52 88.3641 117.608 88.8395C116.299 89.1652 114.756 89.4753 114.181 89.5286C113.272 89.6128 113.047 89.581 112.463 89.2852C111.623 88.8603 111.108 87.946 111.138 86.9344C111.15 86.5616 111.185 86.4247 111.217 86.63C111.363 87.5732 111.628 88.2787 111.95 88.5807C112.423 89.0253 113.646 88.9941 115.375 88.4932C117.603 87.8478 117.992 87.5161 117.991 86.2607C117.99 85.3423 117.576 84.5905 116.989 84.4434C116.469 84.3129 114.303 84.8598 112.724 85.5204C112.087 85.787 111.566 85.9551 111.566 85.8942C111.566 85.7277 113.999 84.6132 115.526 84.0801C116.265 83.8218 117.677 83.2231 118.664 82.7496C119.963 82.1257 120.879 81.799 121.991 81.5635C123.57 81.229 125.88 80.457 126.996 79.8907C128.055 79.3533 128.753 78.817 130.46 77.2279C131.36 76.3902 132.544 75.4394 133.09 75.1152C133.636 74.791 134.243 74.355 134.439 74.1465L134.795 73.7672L133.782 74.222C132.585 74.7586 131.212 75.7789 130.433 76.7103C130.05 77.1677 129.691 77.427 129.29 77.535C128.363 77.7845 126.917 76.9906 125.007 75.1841C124.178 74.3991 123.463 73.7926 123.42 73.836C123.297 73.9584 124.106 75.3624 124.696 76.0513L125.225 76.669L123.289 76.5848C121.075 76.4883 119.771 76.1538 118.786 75.4293C118.05 74.8883 117.394 73.6815 117.394 72.8694C117.394 72.1624 117.173 72.0146 116.916 72.5495C116.62 73.1668 116.028 73.3678 114.261 73.4515C112.097 73.5541 109.899 73.2846 109.056 72.8136L108.404 72.4489L108.504 73.0402C108.592 73.5653 108.564 73.6482 108.255 73.7797C107.742 73.9975 104.72 74.5302 103.225 74.6664C101.752 74.8007 101.176 74.7504 100.702 74.4464C100.247 74.1544 100.211 74.1713 100.211 74.6787C100.211 75.2563 99.7999 75.5228 98.4763 75.803C97.1164 76.0911 93.8043 76.1003 93.1285 75.818C92.6991 75.6387 92.1416 75.083 92.143 74.8355C92.1431 74.7922 92.6307 74.7489 93.2262 74.739C93.8218 74.7293 94.4771 74.6458 94.6826 74.5535C94.9862 74.4172 94.8707 74.4024 94.0666 74.4745C93.4117 74.5333 92.9613 74.5017 92.7353 74.3807C92.2604 74.1268 92.4403 74.0469 94.9263 73.4073C96.066 73.1139 97.4355 72.74 97.9697 72.5761C98.5038 72.4123 99.7141 72.1127 100.659 71.9105C102.666 71.4808 105.075 70.7808 106.575 70.1916C107.905 69.6689 108.827 69.5088 111.641 69.3118C114.828 69.0885 117.361 68.7425 118.941 68.3144C119.909 68.0522 120.961 67.9069 122.548 67.8159C123.781 67.7453 125.368 67.5843 126.076 67.4581C127.881 67.1364 130.96 66.9442 137.162 66.7663C142.467 66.6141 142.536 66.6081 145.529 66.0303C147.188 65.7099 149.42 65.3738 150.489 65.2832C153.99 64.9869 154 64.9853 154 64.6649C154 64.3256 154.058 64.3264 150.638 64.6231ZM50.1572 68.8479C50.1572 69.5596 50.531 70.154 51.096 70.3402C51.7601 70.5593 53.9979 70.9479 54.597 70.9482C55.1091 70.9484 55.3867 70.6343 55.3867 70.0545C55.3867 69.8354 55.2289 69.6725 54.8733 69.5239C54.2201 69.2512 51.7949 68.6202 50.8669 68.4816L50.1572 68.3755V68.8479ZM76.0805 70.2567C75.4231 70.6031 74.0448 71.3282 73.0175 71.8681C71.9903 72.408 70.2925 73.3015 69.2448 73.8537L67.3398 74.8577V80.4913C67.3398 84.7699 67.3848 86.183 67.5266 86.3663C67.6294 86.4992 68.3185 86.9559 69.0581 87.3814C69.7977 87.8069 71.8753 89.001 73.6751 90.0348L76.9473 91.9145L77.4852 91.6158C80.5622 89.9065 82.9885 88.5713 84.6345 87.6815L86.6142 86.6114V80.8689V75.1264L85.8298 74.628C85.3983 74.3538 84.1713 73.6377 83.103 73.0364C81.4024 72.0795 78.4522 70.3593 77.5747 69.8129C77.3166 69.6523 77.1125 69.7129 76.0805 70.2567ZM75.2588 71.3155C74.3137 71.8286 72.347 72.8711 70.8884 73.6322C69.4298 74.3933 68.2385 75.0585 68.2412 75.1103C68.2438 75.1623 68.4624 75.3124 68.7268 75.4439C70.1286 76.1409 76.1508 79.4928 76.7529 79.9111C77.1212 80.167 77.1463 80.1592 78.5459 79.3491C79.3266 78.8973 81.3278 77.8241 82.9932 76.9642C86.426 75.1917 86.3208 75.3642 84.5224 74.4575C83.7786 74.0826 79.2321 71.4665 77.9482 70.6746C77.6606 70.4972 77.3244 70.3589 77.2011 70.3673C77.0779 70.3756 76.2038 70.8023 75.2588 71.3155ZM67.9375 80.7678V85.994L69.0207 86.6259C69.6166 86.9734 71.4487 88.0327 73.0923 88.9799C74.7358 89.9272 76.2663 90.8329 76.4934 90.9925L76.9061 91.2829L76.8669 85.9386L76.8276 80.5941L75.9311 80.0848C75.4381 79.8046 73.5218 78.7357 71.6728 77.7094C69.8238 76.6831 68.227 75.7753 68.1242 75.6924C67.9756 75.5724 67.9375 76.606 67.9375 80.7678ZM114.032 76.0464C113.127 76.1269 112.102 76.4069 109.813 77.1985L106.789 78.2441L103.164 80.5373C101.17 81.7987 98.9475 83.1983 98.225 83.6475C96.3597 84.8075 95.4978 85.6076 94.955 86.6825C94.438 87.706 92.8905 89.3991 91.791 90.1442L91.066 90.6354L91.4808 90.9071C92.3162 91.4543 93.6968 91.0786 96.0524 89.6629C97.954 88.5202 100.356 86.661 100.533 86.1942C100.613 85.984 100.637 85.5859 100.585 85.3099L100.491 84.8081L101.016 85.2088L101.542 85.6097L102.408 85.3621C103.488 85.0532 106.546 83.5767 107.809 82.7543C108.743 82.1461 108.757 82.1276 108.658 81.6001C108.568 81.1211 108.586 81.0762 108.829 81.1783C109.492 81.4566 110.696 81.4315 112.017 81.1116C114.975 80.3952 116.244 79.7869 116.727 78.8528C116.938 78.4439 116.933 78.3564 116.657 77.7335C115.962 76.1633 115.568 75.9096 114.032 76.0464ZM116.097 82.6179C115.376 82.7447 115.221 82.8182 112.271 84.4364C109.393 86.015 107.893 87.1584 106.009 89.2101C105.163 90.1321 103.831 91.5259 103.05 92.3074C101.584 93.7746 101.424 94.0065 101.098 95.1429C100.665 96.6485 99.9215 97.7489 98.7172 98.667C98.306 98.9803 97.9697 99.3076 97.9697 99.3942C97.9697 99.7838 99.1762 100.158 99.9116 99.9969C100.718 99.8198 102.069 98.6533 103.708 96.7175L105.319 94.8148L105.252 94.0467C105.2 93.4416 105.22 93.3366 105.35 93.5513C105.817 94.3229 105.944 94.3905 106.458 94.1413C107.616 93.5812 110.52 90.6217 110.52 90.0031C110.52 89.5488 110.649 89.452 110.978 89.6575C111.447 89.9501 111.468 89.6641 111.021 89.0785C110.637 88.5755 110.595 88.4054 110.595 87.361C110.595 86.2992 110.63 86.1654 111.007 85.772C111.476 85.2823 112.672 84.66 114.956 83.7162C115.828 83.3565 116.605 82.997 116.685 82.9175C116.965 82.6376 116.714 82.5096 116.097 82.6179ZM114.779 85.3059C114.286 85.4684 113.421 85.7744 112.857 85.9862L111.831 86.3712L111.905 87.0327C111.951 87.4344 112.113 87.8351 112.318 88.0536C112.626 88.3812 112.737 88.4051 113.568 88.3231C114.835 88.1979 116.764 87.5714 117.189 87.1469C117.638 86.6977 117.658 85.9203 117.233 85.3807C116.849 84.8927 116.103 84.87 114.779 85.3059ZM92.6655 88.3113C90.9789 89.8439 90.6644 90.2189 91.3722 89.8531C92.1947 89.4279 94.4124 87.2064 94.2133 87.0072C94.1837 86.9777 93.4871 87.5645 92.6655 88.3113ZM117.169 90.6892C116.093 90.8598 114.93 90.9489 114.257 90.9126C113.157 90.8532 113.131 90.8602 112.689 91.3337C112.441 91.5986 112.06 91.8582 111.841 91.9106C111.602 91.9676 111.23 92.2956 110.911 92.7301C110.096 93.8405 108.323 95.4463 107.137 96.1487C105.797 96.9417 105.44 97.3671 104.818 98.9107C104.427 99.8791 104.134 100.334 103.461 101.017C102.988 101.496 102.602 101.946 102.602 102.016C102.602 102.302 103.304 102.61 103.954 102.61C104.473 102.61 104.813 102.497 105.341 102.148C106.153 101.61 107.463 100.212 108.295 98.9969C108.786 98.2793 108.878 98.0226 108.885 97.3541L108.893 96.5618L109.284 97.0304L109.674 97.4992L110.684 96.7652C111.916 95.8698 113.808 93.8771 113.808 93.4752C113.808 93.3139 113.738 93.0518 113.653 92.8929C113.47 92.5508 113.594 92.529 114.388 92.7635C114.879 92.9084 115.052 92.8661 116.273 92.3032C118.243 91.3952 119.88 90.3031 119.149 90.3845C119.046 90.396 118.156 90.5331 117.169 90.6892ZM121.55 91.6831C119.02 93.0134 116.837 94.8218 114.721 97.3421C114.361 97.7713 114.008 98.0866 113.937 98.0427C113.866 97.9988 113.808 98.0402 113.808 98.1346C113.808 98.2288 113.673 98.4177 113.508 98.5541C113.304 98.723 113.13 99.1973 112.962 100.043C112.726 101.232 112.673 101.333 111.685 102.476L110.653 103.669L110.998 103.956C111.761 104.592 112.844 104.171 114.382 102.64C115.368 101.659 115.945 100.737 116.129 99.8476C116.22 99.4139 116.229 99.4091 116.442 99.6982C116.652 99.984 116.729 99.9263 118.235 98.3574L119.808 96.718L119.708 96.0425L119.608 95.367L120.034 95.7714L120.46 96.1758L121.429 95.63C122.361 95.1055 124.269 93.4165 124.264 93.1203C124.261 92.8855 122.764 91.2599 122.551 91.2599C122.443 91.2599 121.992 91.4503 121.55 91.6831ZM64.2221 91.7911C63.8565 92.2557 63.6825 92.7998 63.8008 93.1082C63.9015 93.3706 66.4084 93.6878 67.8628 93.6221L68.9087 93.5748L68.9565 93.0754C69.0476 92.125 68.1275 91.6544 65.8315 91.477C64.5561 91.3785 64.5452 91.3805 64.2221 91.7911ZM69.6596 94.5391C69.6111 94.6178 69.7735 94.7867 70.0206 94.9144C70.3037 95.0608 70.5216 95.3255 70.6096 95.6303L70.7494 96.1137L70.7629 95.6216C70.782 94.9236 69.9354 94.093 69.6596 94.5391ZM67.0096 95.2539C65.9784 95.2993 65.8257 95.3452 65.5528 95.692C65.1945 96.1473 65.1585 96.675 65.4683 96.932C65.7846 97.1943 69.4431 97.0864 69.7824 96.8049C69.9212 96.6896 70.0293 96.3829 70.0293 96.1039C70.0293 95.4645 69.5776 95.1323 68.7633 95.173C68.4323 95.1895 67.6433 95.226 67.0096 95.2539ZM99.0461 96.9982C97.5338 98.5895 97.2875 99.1371 98.4441 98.3357C99.1871 97.8212 100.36 96.3752 100.36 95.9742C100.36 95.7167 99.9884 96.0066 99.0461 96.9982ZM103.469 99.6572C102.141 101.221 101.969 101.845 103.194 100.657C103.763 100.105 104.356 99.0874 104.2 98.9316C104.166 98.8974 103.837 99.2239 103.469 99.6572ZM60.1082 99.1607C59.3826 99.2342 59.1742 99.3207 58.9298 99.6491C58.7603 99.8769 58.6734 100.154 58.7273 100.294C58.8107 100.511 59.1019 100.534 61.1979 100.492C63.3034 100.45 63.6106 100.412 63.8951 100.154C64.099 99.9692 64.2 99.7239 64.1718 99.4818C64.1274 99.1013 64.125 99.1007 62.5586 99.0861C61.6957 99.0782 60.593 99.1118 60.1082 99.1607ZM111.355 101.657C110.537 102.648 110.39 102.909 110.649 102.909C110.859 102.909 112.118 101.497 112.234 101.132C112.435 100.499 112.19 100.646 111.355 101.657Z" fill="black"/>
<circle cx="77.5" cy="77.5" r="77" stroke="black"/>
</svg>
